# xmcd
#
# Track frame offsets: 
#        150
#        20634
#        38100
#        60201
#        84495
#        109136
#        133752
#        170819
#        209505
#        223626
#        239902
#        277490
#        315445
#
# Disc length: 4422 seconds
#
# Revision: 0
# Processed by: cddbd v1.5.2PL0 Copyright (c) Steve Scherf et al.
# Submitted via: ExactAudioCopy v0.99pb5
#
DISCID=c911440d
DTITLE=Henrik Freischlader - Recorded By Martin Meinschäfer Cable Car 
DTITLE=Records 180g LP
DYEAR=2009
DGENRE=Blues
TTITLE0=I
TTITLE1=Got It Made (Like This)
TTITLE2=So Damn Cool
TTITLE3=You Will Come
TTITLE4=You Will
TTITLE5=Breakout
TTITLE6=In Your Arms
TTITLE7=The Bridge
TTITLE8=Cry Again
TTITLE9=The Wrong Way
TTITLE10=Never Be True
TTITLE11=Desert Love
TTITLE12=Bad Dreams
EXTD=
EXTT0=
EXTT1=
EXTT2=
EXTT3=
EXTT4=
EXTT5=
EXTT6=
EXTT7=
EXTT8=
EXTT9=
EXTT10=
EXTT11=
EXTT12=
PLAYORDER=
